<svg width="24" height="24" viewBox="0 0 24 24" fill="none" xmlns="http://www.w3.org/2000/svg">
<path fill-rule="evenodd" clip-rule="evenodd" d="M11.912 21.458C8.37249 21.458 5.34982 20.9072 5.34982 18.7014C5.34982 16.4955 8.35331 14.4592 11.912 14.4592C15.4515 14.4592 18.4742 16.4758 18.4742 18.6816C18.4742 20.8866 15.4707 21.458 11.912 21.458Z" stroke="#949494" stroke-width="1.43812" stroke-linecap="round" stroke-linejoin="round"/>
<path fill-rule="evenodd" clip-rule="evenodd" d="M11.905 11.4024C14.2278 11.4024 16.1105 9.5198 16.1105 7.19702C16.1105 4.87424 14.2278 2.99074 11.905 2.99074C9.58227 2.99074 7.69877 4.87424 7.69877 7.19702C7.69093 9.51195 9.56048 11.3946 11.8754 11.4024C11.8859 11.4024 11.8955 11.4024 11.905 11.4024Z" stroke="#949494" stroke-width="1.43812" stroke-linecap="round" stroke-linejoin="round"/>
</svg>
