<svg width="60" height="61" viewBox="0 0 60 61" fill="none" xmlns="http://www.w3.org/2000/svg">
<path fill-rule="evenodd" clip-rule="evenodd" d="M29.5615 0.15625C29.4202 0.5535 27.7275 6.4945 27.3266 8C27.0795 8.92813 26.5445 10.8687 26.1376 12.3125C25.7307 13.7563 25.4067 14.9446 25.4177 14.9534C25.4286 14.9621 25.9438 14.8556 26.5625 14.7166C28.1343 14.3638 31.219 14.3641 32.7812 14.7173C33.3829 14.8533 33.8744 14.9303 33.8736 14.8885C33.873 14.8468 33.505 13.4906 33.0559 11.875C32.6069 10.2594 32.0126 8.09375 31.7354 7.0625C30.6127 2.88725 29.768 0 29.6689 0C29.6404 0 29.5921 0.070375 29.5615 0.15625ZM19.7091 2.78125C19.616 3.00475 19.4396 3.49688 19.3171 3.875C19.1945 4.25313 19.0544 4.6065 19.0056 4.66025C18.9569 4.714 18.4012 4.8215 17.771 4.89913C17.1406 4.97675 16.625 5.08175 16.625 5.1325C16.625 5.18313 17.0185 5.646 17.4994 6.161L18.3738 7.09725L18.2553 7.72213C18.1011 8.53487 18.0553 9.34688 18.1576 9.44925C18.2022 9.49388 18.6916 9.26488 19.245 8.94038L20.2514 8.35038L21.3674 8.92675C21.9814 9.24388 22.5164 9.44963 22.5569 9.38412C22.5974 9.31862 22.5173 8.7465 22.3789 8.11263L22.1274 6.96025L22.5539 6.44887C22.7885 6.16762 23.1529 5.73238 23.3638 5.48163C23.8345 4.92163 23.7576 4.875 22.363 4.875C21.2306 4.875 21.3335 4.96375 20.5 3.267C20.2594 2.77725 20.0211 2.37613 19.9704 2.37575C19.9198 2.37538 19.8022 2.55775 19.7091 2.78125ZM39.6003 3.59375C39.4965 3.714 39.1755 4.16537 38.8867 4.5965L38.3619 5.38062L37.5246 5.3095C37.0642 5.2705 36.5327 5.21438 36.3438 5.18488C36.1548 5.15538 36 5.18425 36 5.249C36 5.31375 36.2812 5.80975 36.625 6.35112C36.9688 6.89262 37.25 7.402 37.25 7.48312C37.25 7.56412 37.0257 8.0765 36.7518 8.6215C36.4523 9.21725 36.3039 9.6435 36.3799 9.6905C36.5379 9.78813 37.0887 9.67838 38.0874 9.35025L38.8621 9.09562L39.751 9.742C41.0654 10.6981 41 10.7192 41 9.33825V8.14987L42.0029 7.42775C42.5544 7.03062 42.9622 6.66637 42.9091 6.61837C42.856 6.57037 42.3444 6.3775 41.7723 6.18975C41.2001 6.002 40.7108 5.78413 40.6847 5.7055C40.6587 5.62687 40.4906 5.07037 40.3112 4.46875C40.1317 3.86725 39.9408 3.375 39.8867 3.375C39.8329 3.375 39.7039 3.4735 39.6003 3.59375ZM6.57088 7.14775C6.80275 7.6035 8.05513 9.702 8.68338 10.6875C8.9025 11.0312 10.6454 13.7735 12.5564 16.7812C14.4674 19.7891 16.0661 22.2467 16.1092 22.2426C16.1522 22.2386 16.4406 21.838 16.75 21.3525C17.4816 20.2041 19.2677 18.3175 20.4097 17.4869C20.9062 17.1256 21.3604 16.7895 21.4188 16.74C21.4773 16.6905 20.7179 16.124 19.7313 15.4813C18.7448 14.8384 16.475 13.3333 14.6875 12.1362C11.4669 9.97975 7.083 7.12012 6.607 6.86537C6.36538 6.73612 6.36462 6.7425 6.57088 7.14775ZM52.4967 7.03113C51.5967 7.58425 38.1808 16.4139 38.0329 16.5504C37.9134 16.6607 38.1224 16.8769 38.9536 17.5028C40.2784 18.5002 41.6224 19.9101 42.513 21.2365C42.884 21.7889 43.2361 22.2268 43.2956 22.2094C43.355 22.1921 43.7487 21.6321 44.1706 20.965C44.5924 20.2979 45.7209 18.5281 46.6784 17.0322C50.5181 11.0332 53.0681 6.90137 52.983 6.81637C52.9544 6.78775 52.7355 6.88438 52.4967 7.03113ZM28.875 16.3299C26.8193 16.4831 25.0269 16.973 23.33 17.8452C20.2735 19.4164 17.818 22.2487 16.774 25.4075C16.3525 26.6827 16 28.7831 16 30.0194C16 32.7199 16.8201 35.5856 18.1731 37.6123C18.9562 38.7854 20.5142 40.4266 21.6296 41.2534C22.626 41.9921 24.7513 43.0282 25.8404 43.3064C26.9535 43.5907 28.9355 43.8734 29.8218 43.8742C30.8416 43.8752 32.7287 43.5466 33.864 43.1702C37.3544 42.0132 40.3149 39.4854 41.9165 36.2945C43.673 32.7952 43.7416 27.7959 42.0825 24.2049C40.6236 21.0474 37.7996 18.4003 34.6118 17.2019C33.0229 16.6046 30.4455 16.2129 28.875 16.3299ZM27.3125 19.1856C23.2691 20.0795 20.296 22.8049 19.0678 26.7432C18.2613 29.3298 18.511 32.6729 19.6857 35.0134C20.9089 37.4507 22.8207 39.2634 25.3125 40.3483C26.8879 41.0341 27.6304 41.1751 29.625 41.1671C31.8183 41.1584 32.8309 40.9274 34.6875 40.012C36.7241 39.008 38.2205 37.5868 39.3257 35.607C40.4072 33.6699 40.8254 31.8256 40.7104 29.5C40.4571 24.376 36.9641 20.2131 32.0685 19.2006C30.8909 18.9571 28.3821 18.9492 27.3125 19.1856ZM13.0625 26.3309C11.8039 26.7244 8.34412 27.7407 4.5625 28.8277C1.7965 29.6229 0.25 30.1327 0.25 30.2495C0.25 30.3132 0.489125 30.4281 0.78125 30.5049C1.97012 30.8171 8.61475 32.6986 11.155 33.4425C12.6497 33.8801 14.0791 34.277 14.3315 34.3242C14.7465 34.4021 14.7816 34.3877 14.6991 34.174C14.3108 33.1676 14.1971 32.2109 14.2033 30C14.2086 28.0958 14.2535 27.5275 14.4578 26.7812C14.6125 26.2157 14.6552 25.8799 14.5716 25.888C14.4979 25.8951 13.8188 26.0944 13.0625 26.3309ZM44.75 26.0564C44.75 26.1561 44.8385 26.564 44.9466 26.9626C45.2632 28.1304 45.3251 31.1861 45.0611 32.625C44.9414 33.2781 44.8165 33.9629 44.7839 34.1466L44.7245 34.4808L45.706 34.1748C46.7504 33.8493 48.8571 33.2437 51.3125 32.5635C53.6829 31.9067 58.414 30.5265 58.8076 30.3769C59.2945 30.1917 59.1348 30.0841 57.8125 29.7057C57.1937 29.5287 55.5062 29.0405 54.0625 28.6206C52.6188 28.2009 50.2 27.4994 48.6875 27.0619C47.175 26.6244 45.6914 26.1784 45.3905 26.0707C44.726 25.833 44.75 25.8335 44.75 26.0564ZM14.2547 40.7188C13.2791 42.2827 12.0677 44.2094 11.5629 45C8.66075 49.5448 6.3185 53.3602 6.38813 53.4297C6.41538 53.457 8.96887 51.7957 12.0626 49.7381C15.1562 47.6804 18.5467 45.4301 19.597 44.7374L21.5064 43.478L20.6595 42.852C19.0938 41.6948 16.8387 39.2552 16.3566 38.1971C16.2759 38.02 16.1691 37.875 16.1192 37.875C16.0694 37.875 15.2304 39.1548 14.2547 40.7188ZM42.7166 38.5938C41.9933 39.7651 40.5943 41.2817 39.2223 42.382C38.5156 42.9487 37.9249 43.4461 37.9094 43.4875C37.8939 43.5287 38.4001 43.8948 39.0344 44.3009C39.6686 44.707 42.9954 46.8921 46.4274 49.1566C49.8592 51.4212 52.7477 53.305 52.8462 53.3428C52.9981 53.401 52.9969 53.3566 52.8376 53.0495C52.5041 52.4065 50.4092 49.041 47.6325 44.6875C46.1415 42.35 44.565 39.8609 44.129 39.1562C43.6931 38.4516 43.2969 37.875 43.2485 37.875C43.2001 37.875 42.9608 38.1984 42.7166 38.5938ZM25.5 45.4062C25.4999 45.4922 25.7006 46.2938 25.9459 47.1875C26.1911 48.0812 26.6999 49.9375 27.0765 51.3125C28.8366 57.7393 29.4586 59.8688 29.6276 60.047C29.7369 60.1621 30.3041 58.4183 31.0457 55.6875C31.2885 54.7938 31.8614 52.6844 32.3189 51C33.7419 45.761 33.8629 45.25 33.6804 45.25C33.5901 45.25 33.1049 45.3406 32.6019 45.4512C31.3196 45.7336 28.0304 45.7374 26.6875 45.458C25.4899 45.209 25.5 45.2094 25.5 45.4062ZM40.1741 53.7046C39.9069 53.886 39.5005 54.1776 39.271 54.3526L38.8536 54.671L38.2705 54.4469C37.151 54.0164 36.504 53.8294 36.4211 53.9123C36.3751 53.9581 36.5429 54.491 36.7938 55.0964C37.0448 55.7016 37.25 56.2621 37.25 56.3418C37.25 56.4214 36.9683 56.9256 36.624 57.462C35.8963 58.5959 35.8984 58.5985 37.4084 58.3776C38.0209 58.2881 38.4405 58.2764 38.4868 58.3475C39.4638 59.8499 39.9207 60.4865 39.9912 60.443C40.039 60.4134 40.2359 59.8342 40.4286 59.156L40.7793 57.9227L41.7959 57.5682C42.355 57.3732 42.8549 57.1766 42.9067 57.1314C42.9586 57.086 42.5563 56.7218 42.0126 56.3218L41.0241 55.5946L40.9362 54.4849C40.888 53.8744 40.806 53.375 40.7541 53.375C40.7024 53.375 40.4412 53.5234 40.1741 53.7046ZM17.9186 54.1562C17.9579 54.3797 18.0262 54.9025 18.0707 55.318L18.1515 56.0735L17.1909 57.0049C16.1089 58.0541 16.1146 58.0747 17.5 58.125C18.6551 58.1669 18.7311 58.217 19.1115 59.188C19.2999 59.669 19.5448 60.2313 19.6555 60.4375L19.8569 60.8125L20.4364 59.5938L21.0159 58.375H22.3316H23.6474L22.8029 57.3543L21.9584 56.3335L22.2542 55.1709C22.4169 54.5315 22.5149 53.9732 22.472 53.9304C22.4291 53.8875 21.926 54.0637 21.3539 54.322C20.7819 54.5804 20.2491 54.7916 20.1701 54.7916C20.0911 54.7916 19.576 54.5572 19.0254 54.2709C18.4749 53.9844 17.9845 53.75 17.9357 53.75C17.887 53.75 17.8792 53.9328 17.9186 54.1562Z" fill="#FDBA74"/>
</svg>
